<?xml version="1.0" standalone="no"?>
<!DOCTYPE svg PUBLIC "-//W3C//DTD SVG 1.1//EN" "http://www.w3.org/Graphics/SVG/1.1/DTD/svg11.dtd" >
<svg xmlns="http://www.w3.org/2000/svg" xmlns:xlink="http://www.w3.org/1999/xlink" version="1.1">
<metadata>
Created by FontForge 20161013 at Wed Dec 19 16:21:30 2012
 By ,,,
Copyright (c) 2012 by Asley Cruz. All rights reserved.
</metadata>
<defs>
<font id="Aviddyn-Bold" horiz-adv-x="1175" >
  <font-face 
    font-family="Aviddyn"
    font-weight="700"
    font-stretch="normal"
    units-per-em="1900"
    panose-1="2 0 5 0 0 0 0 0 0 0"
    ascent="1520"
    descent="-380"
    x-height="999"
    cap-height="1460"
    bbox="70 -602 1714 1837.23"
    underline-thickness="150"
    underline-position="-442"
    unicode-range="U+0021-201D"
  />
<missing-glyph horiz-adv-x="698" 
 />
    <glyph glyph-name=".notdef" horiz-adv-x="698" 
 />
    <glyph glyph-name=".null" horiz-adv-x="0" 
 />
    <glyph glyph-name="nonmarkingreturn" horiz-adv-x="633" 
 />
    <glyph glyph-name="exclam" unicode="!" horiz-adv-x="282" 
d="M141 439q-29 0 -50 21t-21 50v879q0 29 21 50t50 21t50 -21t21 -50v-879q0 -29 -21 -50t-50 -21zM141 0q-29 0 -50 21t-21 50v142q0 29 21 50q21 20 50 20t50 -20q21 -21 21 -50v-142q0 -29 -21 -50t-50 -21z" />
    <glyph glyph-name="quotedbl" unicode="&#x22;" horiz-adv-x="491" 
d="M90 1440q20 20 48 20t47 -20q20 -20 20 -48v-135q0 -28 -20 -48q-19 -19 -47 -19t-48 19q-20 20 -20 48v135q0 28 20 48zM306 1440q20 20 48 20t48 -20q19 -20 19 -48v-135q0 -28 -19 -48q-20 -19 -48 -19t-48 19q-20 20 -20 48v135q0 28 20 48z" />
    <glyph glyph-name="numbersign" unicode="#" horiz-adv-x="1510" 
d="M959 752h-350l-58 -228h350zM1369 894q29 0 50 -21t21 -50t-21 -50t-50 -21h-264l-58 -228h228q29 0 50 -21t21 -50q0 -30 -21 -50q-21 -21 -50 -21h-264l-84 -329q-13 -53 -68 -53q-9 0 -18 2q-28 7 -43 33q-15 25 -8 53l75 294h-350l-84 -329q-13 -53 -68 -53
q-9 0 -18 2q-28 7 -43 33q-15 25 -8 53l75 294h-228q-29 0 -50 21q-21 20 -21 50q0 29 21 50t50 21h264l58 228h-228q-29 0 -50 21t-21 50t21 50t50 21h264l84 328q7 29 32 44t54 8q28 -8 43 -33t8 -54l-75 -293h350l84 328q7 29 32 44q26 15 54 8q28 -8 43 -33t8 -54
l-75 -293h228z" />
    <glyph glyph-name="percent" unicode="%" horiz-adv-x="1573" 
d="M939 1143q27 12 54 2q28 -10 40 -36q13 -27 3 -54l-366 -1008q-17 -47 -66 -47q-13 0 -25 4q-27 10 -40 37q-12 26 -2 54l366 1008q10 28 36 40zM503 937q0 29 -20 50q-21 21 -50 21h-150q-30 0 -50 -21q-21 -21 -21 -50v-150q0 -29 21 -50q20 -21 50 -21h150q29 0 50 21
q20 21 20 50v150zM645 787q0 -88 -62 -150q-62 -63 -150 -63h-150q-88 0 -151 63q-62 62 -62 150v150q0 88 62 150q63 63 151 63h150q88 0 150 -63q62 -62 62 -150v-150zM1361 363q0 29 -21 50q-20 21 -50 21h-150q-29 0 -50 -21t-21 -50v-150q0 -30 21 -50q21 -21 50 -21
h150q30 0 50 21q21 20 21 50v150zM1290 575q88 0 151 -62q62 -62 62 -150v-150q0 -88 -62 -151q-63 -62 -151 -62h-150q-88 0 -150 62q-62 63 -62 151v150q0 88 62 150t150 62h150z" />
    <glyph glyph-name="ampersand" unicode="&#x26;" horiz-adv-x="1179" 
d="M212 971q0 -70 50 -120q49 -50 120 -50h411q70 0 120 50t50 120v177q0 71 -50 120q-50 50 -120 50h-411q-71 0 -120 -50q-50 -49 -50 -120v-177zM1093 111q16 -25 10 -54q-5 -28 -29 -45q-18 -12 -40 -12q-38 0 -59 31l-425 628h-186q-63 0 -108 -50q-44 -50 -44 -120
v-177q0 -70 50 -120q49 -50 120 -50h368q30 0 51 -21q20 -21 20 -50t-20 -50q-21 -21 -51 -21h-368q-129 0 -221 91q-91 92 -91 221v177q0 150 111 244q-111 93 -111 238v177q0 129 91 221q92 91 221 91h411q129 0 220 -91q92 -92 92 -221v-177q0 -129 -92 -220
q-91 -92 -220 -92h-72z" />
    <glyph glyph-name="quotesingle" unicode="'" horiz-adv-x="282" 
d="M91 1439q21 21 50 21t50 -21t21 -50v-142q0 -29 -21 -50q-21 -20 -50 -20t-50 20q-21 21 -21 50v142q0 29 21 50z" />
    <glyph glyph-name="parenleft" unicode="(" horiz-adv-x="410" 
d="M326 1444q-123 -209 -123 -714q0 -511 123 -714q14 -24 8 -50q-7 -27 -30 -41q-16 -10 -35 -10q-37 0 -56 32q-143 234 -143 783t143 783q14 23 41 30q26 7 50 -8q23 -14 30 -41q6 -26 -8 -50z" />
    <glyph glyph-name="parenright" unicode=")" horiz-adv-x="410" 
d="M208 730q0 505 -124 714q-14 24 -7 50q6 27 30 41q23 15 50 8t41 -30q142 -234 142 -783t-142 -783q-19 -32 -57 -32q-18 0 -34 10q-24 14 -30 41q-7 26 7 50q124 203 124 714z" />
    <glyph glyph-name="asterisk" unicode="*" horiz-adv-x="664" 
d="M545 1247q20 0 35 -14q14 -15 14 -35q0 -21 -14 -35q-15 -15 -35 -15h-93l66 -65q14 -15 14 -36q0 -20 -14 -35q-15 -14 -35 -14q-21 0 -36 14l-65 66v-93q0 -20 -15 -35q-14 -14 -35 -14q-20 0 -35 14q-14 15 -14 35v93l-66 -66q-15 -14 -35 -14q-21 0 -35 14
q-15 15 -15 35q0 21 15 36l65 65h-92q-21 0 -35 15q-15 14 -15 35q0 20 15 35q14 14 35 14h92l-65 66q-15 15 -15 35q0 21 15 35q14 15 35 15q20 0 35 -15l66 -65v92q0 21 14 35q15 15 35 15q21 0 35 -15q15 -14 15 -35v-92l65 65q15 15 36 15q20 0 35 -15q14 -14 14 -35
q0 -20 -14 -35l-66 -66h93z" />
    <glyph glyph-name="plus" unicode="+" horiz-adv-x="849" 
d="M708 570q29 0 50 -21q21 -20 21 -50q0 -29 -21 -50t-50 -21h-213v-212q0 -29 -21 -50q-20 -21 -50 -21q-29 0 -50 21t-21 50v212h-212q-29 0 -50 21t-21 50q0 30 21 50q21 21 50 21h212v213q0 29 21 50t50 21q30 0 50 -21q21 -21 21 -50v-213h213z" />
    <glyph glyph-name="comma" unicode="," horiz-adv-x="364" 
d="M195 121q28 10 54 -3q26 -14 36 -41q9 -28 -4 -55l-71 -141q-20 -39 -64 -39q-16 0 -31 7q-26 13 -36 41q-9 28 4 54l71 142q13 26 41 35z" />
    <glyph glyph-name="hyphen" unicode="-" horiz-adv-x="849" 
d="M708 570q29 0 50 -21q21 -20 21 -50q0 -29 -21 -50t-50 -21h-567q-29 0 -50 21t-21 50q0 30 21 50q21 21 50 21h567z" />
    <glyph glyph-name="hyphen" unicode="&#xad;" horiz-adv-x="849" 
d="M708 570q29 0 50 -21q21 -20 21 -50q0 -29 -21 -50t-50 -21h-567q-29 0 -50 21t-21 50q0 30 21 50q21 21 50 21h567z" />
    <glyph glyph-name="period" unicode="." horiz-adv-x="273" 
d="M203 67q0 -67 -66 -67q-67 0 -67 67q0 66 67 66q66 0 66 -66z" />
    <glyph glyph-name="slash" unicode="/" horiz-adv-x="827" 
d="M658 1539q24 11 50 2t38 -34q11 -25 2 -51l-544 -1497q-16 -44 -62 -44q-12 0 -23 4q-26 9 -37 34q-12 25 -3 51l544 1497q10 26 35 38z" />
    <glyph glyph-name="zero" unicode="0" 
d="M892 142q29 0 50 21q21 20 21 50v684l-665 -755h594zM283 1013q-30 0 -50 -20q-21 -21 -21 -50v-684l665 754h-594zM892 1155q88 0 150 -62q63 -62 63 -150v-730q0 -88 -63 -151q-62 -62 -150 -62h-609q-86 0 -148 60q-5 4 -2 2q-6 5 -11 12q-52 60 -52 139v730
q0 88 62 150q63 62 151 62h609z" />
    <glyph glyph-name="one" unicode="1" horiz-adv-x="643" 
d="M571 1102q1 -3 1 -6q1 -4 1 -8q0 -8 0 -4v-1013q0 -29 -21 -50q-20 -21 -50 -21q-29 0 -50 21t-21 50v811l-232 -292q-21 -27 -55 -27q-25 0 -44 16q-23 18 -27 47q-3 30 15 53l359 450q-2 -3 3 2q2 3 5 6q2 2 5 4l6 4q3 1 6 3q3 1 6 3q3 1 7 2q3 1 6 1q3 1 8 1q6 0 3 0
t3 0q3 0 8 -1q4 0 6 -1q2 0 7 -2l6 -3q2 0 6 -3q4 -2 6 -4q6 -4 3 -1q-4 2 2 -3q3 -3 6 -5q2 -3 4 -5l4 -6t3 -6t3 -6q1 -4 2 -7z" />
    <glyph glyph-name="two" unicode="2" 
d="M892 1155q88 0 150 -62q63 -62 63 -150v-124q0 -88 -63 -151q-62 -62 -150 -62h-609q-30 0 -50 -21q-21 -21 -21 -50v-322q0 -30 21 -50q20 -21 50 -21h609q46 0 71 17v68q0 29 21 50q21 20 50 20t50 -20q21 -21 21 -50v-78q0 -64 -61 -106q-61 -43 -152 -43h-609
q-88 0 -151 62q-62 63 -62 151v322q0 88 62 150q63 63 151 63h609q29 0 50 21q21 20 21 50v124q0 29 -21 50q-21 20 -50 20h-751q-29 0 -50 21t-21 50q0 30 21 50q21 21 50 21h751z" />
    <glyph glyph-name="three" unicode="3" 
d="M892 1155q88 0 150 -62q63 -62 63 -150v-124q0 -81 -55 -142q55 -61 55 -142v-322q0 -88 -63 -151q-62 -62 -150 -62h-751q-29 0 -50 21t-21 50t21 50t50 21h751q29 0 50 21q21 20 21 50v322q0 29 -21 50t-50 21h-468q-29 0 -50 21q-21 20 -21 50q0 29 21 50t50 21h468
q29 0 50 21q21 20 21 50v124q0 29 -21 50q-21 20 -50 20h-751q-29 0 -50 21t-21 50q0 30 21 50q21 21 50 21h751z" />
    <glyph glyph-name="four" unicode="4" 
d="M984 1134q21 21 50 21t50 -21q21 -20 21 -50v-1013q0 -29 -21 -50t-50 -21t-50 21t-21 50v535h-680q-88 0 -151 62q-62 63 -62 151v265q0 30 21 50q21 21 50 21t50 -21q21 -20 21 -50v-265q0 -30 21 -50q20 -21 50 -21h680v336q0 30 21 50z" />
    <glyph glyph-name="five" unicode="5" 
d="M283 1013q-30 0 -50 -20q-21 -21 -21 -50v-124q0 -30 21 -50q20 -21 50 -21h609q88 0 150 -63q63 -62 63 -150v-322q0 -88 -63 -151q-62 -62 -150 -62h-609q-91 0 -152 43q-61 42 -61 106v78q0 29 21 50q21 20 50 20t50 -20q21 -21 21 -50v-68q24 -17 71 -17h609
q29 0 50 21q21 20 21 50v322q0 29 -21 50t-50 21h-609q-88 0 -151 62q-62 63 -62 151v124q0 88 62 150q63 62 151 62h751q29 0 50 -21q21 -20 21 -50q0 -29 -21 -50t-50 -21h-751z" />
    <glyph glyph-name="six" unicode="6" 
d="M283 606q-30 0 -50 -21q-21 -21 -21 -50v-322q0 -30 21 -50q20 -21 50 -21h609q29 0 50 21q21 20 21 50v322q0 29 -21 50t-50 21h-609zM283 1013q-30 0 -50 -20q-21 -21 -21 -50v-208q35 13 71 13h609q88 0 150 -63q63 -62 63 -150v-322q0 -88 -63 -151q-62 -62 -150 -62
h-609q-88 0 -151 62q-62 63 -62 151v730q0 88 62 150q63 62 151 62h751q29 0 50 -21q21 -20 21 -50q0 -29 -21 -50t-50 -21h-751z" />
    <glyph glyph-name="seven" unicode="7" horiz-adv-x="1033" 
d="M651 1155q129 0 221 -91q91 -92 91 -221v-772q0 -29 -21 -50t-50 -21t-50 21t-21 50v535h-680q-29 0 -50 21q-21 20 -21 50q0 29 21 50t50 21h680v95q0 71 -50 121q-49 49 -120 49h-510q-29 0 -50 21t-21 50q0 30 21 50q21 21 50 21h510z" />
    <glyph glyph-name="eight" unicode="8" 
d="M963 535q0 29 -21 50t-50 21h-609q-30 0 -50 -21q-21 -21 -21 -50v-322q0 -30 21 -50q20 -21 50 -21h609q29 0 50 21q21 20 21 50v322zM212 819q0 -30 21 -50q20 -21 50 -21h609q29 0 50 21q21 20 21 50v124q0 29 -21 50q-21 20 -50 20h-609q-30 0 -50 -20
q-21 -21 -21 -50v-124zM892 1155q88 0 150 -62q63 -62 63 -150v-124q0 -81 -55 -142q55 -61 55 -142v-322q0 -88 -63 -151q-62 -62 -150 -62h-609q-88 0 -151 62q-62 63 -62 151v322q0 81 55 142q-55 61 -55 142v124q0 88 62 150q63 62 151 62h609z" />
    <glyph glyph-name="nine" unicode="9" 
d="M892 592q29 0 50 21q21 20 21 50v280q0 29 -21 50q-21 20 -50 20h-609q-30 0 -50 -20q-21 -21 -21 -50v-280q0 -30 21 -50q20 -21 50 -21h609zM892 1155q88 0 150 -62q63 -62 63 -150v-730q0 -88 -63 -151q-62 -62 -150 -62h-751q-29 0 -50 21t-21 50t21 50t50 21h751
q29 0 50 21q21 20 21 50v249q-35 -12 -71 -12h-609q-88 0 -151 62q-62 63 -62 151v280q0 88 62 150q63 62 151 62h609z" />
    <glyph glyph-name="colon" unicode=":" horiz-adv-x="273" 
d="M203 534q0 -67 -66 -67q-67 0 -67 67q0 66 67 66q66 0 66 -66zM203 67q0 -67 -66 -67q-67 0 -67 67q0 66 67 66q66 0 66 -66z" />
    <glyph glyph-name="semicolon" unicode=";" horiz-adv-x="364" 
d="M195 121q28 10 54 -3q26 -14 36 -41q9 -28 -4 -55l-71 -141q-20 -39 -64 -39q-16 0 -31 7q-26 13 -36 41q-9 28 4 54l71 142q13 26 41 35zM288 534q0 -67 -66 -67q-67 0 -67 67q0 66 67 66q66 0 66 -66z" />
    <glyph glyph-name="semicolon" unicode="&#x37e;" horiz-adv-x="364" 
d="M195 121q28 10 54 -3q26 -14 36 -41q9 -28 -4 -55l-71 -141q-20 -39 -64 -39q-16 0 -31 7q-26 13 -36 41q-9 28 4 54l71 142q13 26 41 35zM288 534q0 -67 -66 -67q-67 0 -67 67q0 66 67 66q66 0 66 -66z" />
    <glyph glyph-name="less" unicode="&#x3c;" horiz-adv-x="863" 
d="M772 640q-21 -21 -50 -21q-53 0 -68 51l-351 -172l351 -171q15 50 68 50q29 0 50 -21t21 -50v-91q0 -40 -33 -60q-18 -11 -38 -11q-16 0 -31 7l-581 283q-40 20 -40 64t40 64l581 283q35 18 69 -3q33 -21 33 -60v-92q0 -29 -21 -50z" />
    <glyph glyph-name="equal" unicode="=" horiz-adv-x="849" 
d="M141 612q-29 0 -50 21t-21 50q0 30 21 50q21 21 50 21h567q29 0 50 -21q21 -20 21 -50q0 -29 -21 -50t-50 -21h-567zM708 384q29 0 50 -21t21 -50t-21 -50t-50 -21h-567q-29 0 -50 21t-21 50t21 50t50 21h567z" />
    <glyph glyph-name="greater" unicode="&#x3e;" horiz-adv-x="863" 
d="M141 619q-29 0 -50 21t-21 50v92q0 39 33 60q34 21 69 3l581 -283q40 -20 40 -64t-40 -64l-581 -283q-15 -7 -31 -7q-20 0 -38 11q-33 20 -33 60v91q0 29 21 50t50 21q52 0 68 -50l351 171l-351 172q-16 -51 -68 -51z" />
    <glyph glyph-name="question" unicode="?" horiz-adv-x="750" 
d="M191 403q-21 -20 -50 -20t-50 20q-21 21 -21 51v219q0 30 21 50q21 21 50 21h234q67 0 115 50t48 120v234q0 71 -48 120q-48 50 -115 50h-234q-29 0 -50 21t-21 50t21 50t50 21h234q126 0 215 -91q90 -92 90 -221v-234q0 -129 -90 -220q-89 -92 -215 -92h-163v-148
q0 -30 -21 -51zM191 21q-21 -21 -50 -21t-50 21t-21 50v113q0 30 21 50q21 21 50 21t50 -21q21 -20 21 -50v-113q0 -29 -21 -50z" />
    <glyph glyph-name="at" unicode="@" horiz-adv-x="1423" 
d="M1208 702q0 71 -51 122t-122 51h-420q-71 0 -122 -51t-51 -122v-384q0 -71 51 -122t122 -51h420q71 0 122 51t51 122v384zM1035 1240q131 0 224 -93q94 -94 94 -225v-604q0 -131 -94 -224q-93 -94 -224 -94h-420q-131 0 -224 94q-94 93 -94 224v384q0 131 94 224
q93 94 224 94h420q89 0 165 -47q-16 54 -61 88q-47 34 -104 34h-647q-72 0 -123 -50q-50 -51 -50 -123v-824q0 -72 50 -123q51 -50 123 -50h748q30 0 51 -22q21 -21 21 -51t-21 -51t-51 -21h-748q-131 0 -225 93q-93 94 -93 225v824q0 131 93 225q94 93 225 93h647z" />
    <glyph glyph-name="A" unicode="A" 
d="M963 791v357q0 71 -50 120q-50 50 -120 50h-411q-71 0 -120 -50q-50 -49 -50 -120v-477zM793 1460q129 0 220 -91q92 -92 92 -221v-1077q0 -29 -21 -50t-50 -21t-50 21t-21 50v576l-751 -119v-457q0 -29 -21 -50t-50 -21t-50 21t-21 50v1077q0 129 91 221q92 91 221 91
h411z" />
    <glyph glyph-name="B" unicode="B" 
d="M963 489q0 67 -45 105q-45 39 -111 28l-595 -94v-386h581q70 0 120 50t50 120v177zM963 1148q0 70 -50 120t-120 50h-581v-647l573 91q72 12 125 74t53 135v177zM1105 971q0 -146 -114 -254q11 -8 19 -15q95 -81 95 -213v-177q0 -129 -92 -221q-91 -91 -220 -91h-652
q-29 0 -50 21t-21 50v1318q0 29 21 50t50 21h652q129 0 220 -91q92 -92 92 -221v-177z" />
    <glyph glyph-name="C" unicode="C" 
d="M1084 956q-21 -20 -50 -20t-50 20q-21 21 -21 50v192q0 49 -50 84q-51 36 -120 36h-411q-71 0 -120 -50q-50 -49 -50 -120v-836q0 -71 50 -120q49 -50 120 -50h411q69 0 120 36q50 35 50 84v192q0 29 21 50q21 20 50 20t50 -20q21 -21 21 -50v-192q0 -108 -92 -185
q-91 -77 -220 -77h-411q-129 0 -221 91q-91 92 -91 221v836q0 129 91 221q92 91 221 91h411q129 0 220 -77q92 -77 92 -185v-192q0 -29 -21 -50z" />
    <glyph glyph-name="D" unicode="D" 
d="M963 1148q0 71 -50 120q-50 50 -120 50h-581v-1176h581q70 0 120 50q50 49 50 120v836zM793 1460q129 0 220 -91q92 -92 92 -221v-836q0 -129 -92 -221q-91 -91 -220 -91h-652q-29 0 -50 21t-21 50v1318q0 29 21 50t50 21h652z" />
    <glyph glyph-name="E" unicode="E" 
d="M1084 956q-21 -20 -50 -20t-50 20q-21 21 -21 50v192q0 49 -50 84q-51 36 -120 36h-411q-70 0 -120 -50q-50 -49 -50 -120v-472l566 123q29 7 53 -9q25 -16 31 -45t-9 -53q-16 -25 -45 -31l-596 -130v-219q0 -71 50 -120q50 -50 120 -50h411q69 0 120 36q50 35 50 84v192
q0 29 21 50q21 20 50 20t50 -20q21 -21 21 -50v-192q0 -108 -92 -185q-91 -77 -220 -77h-411q-129 0 -221 91q-91 92 -91 221v836q0 129 91 221q92 91 221 91h411q129 0 220 -77q92 -77 92 -185v-192q0 -29 -21 -50z" />
    <glyph glyph-name="F" unicode="F" 
d="M793 1460q129 0 220 -77q92 -77 92 -185v-192q0 -29 -21 -50q-21 -20 -50 -20t-50 20q-21 21 -21 50v192q0 49 -50 84q-51 36 -120 36h-411q-71 0 -120 -50q-50 -49 -50 -120v-472l566 123q29 7 53 -9q25 -16 31 -45t-9 -53q-16 -25 -45 -31l-596 -130v-460
q0 -29 -21 -50t-50 -21t-50 21t-21 50v1077q0 129 91 221q92 91 221 91h411z" />
    <glyph glyph-name="G" unicode="G" 
d="M1084 956q-21 -20 -50 -20t-50 20q-21 21 -21 50v192q0 49 -50 84q-51 36 -120 36h-411q-71 0 -120 -50q-50 -49 -50 -120v-836q0 -71 50 -120q49 -50 120 -50h411q70 0 120 50q50 49 50 120v177q0 70 -45 120q-44 50 -107 50h-224q-29 0 -50 21q-20 21 -20 50t20 50
q21 21 50 21h224q121 0 208 -92q86 -91 86 -220v-177q0 -129 -92 -221q-91 -91 -220 -91h-411q-129 0 -221 91q-91 92 -91 221v836q0 129 91 221q92 91 221 91h411q129 0 220 -77q92 -77 92 -185v-192q0 -29 -21 -50z" />
    <glyph glyph-name="H" unicode="H" 
d="M984 1439q21 21 50 21t50 -21t21 -50v-1318q0 -29 -21 -50t-50 -21t-50 21t-21 50v576l-751 -119v-457q0 -29 -21 -50t-50 -21t-50 21t-21 50v1318q0 29 21 50t50 21t50 -21t21 -50v-718l751 120v598q0 29 21 50z" />
    <glyph glyph-name="I" unicode="I" 
d="M1034 142q29 0 50 -21t21 -50t-21 -50t-50 -21h-893q-29 0 -50 21t-21 50t21 50t50 21h376v1176h-376q-29 0 -50 21t-21 50t21 50t50 21h893q29 0 50 -21t21 -50t-21 -50t-50 -21h-376v-1176h376z" />
    <glyph glyph-name="J" unicode="J" 
d="M1034 1460q29 0 50 -21t21 -50v-1077q0 -129 -92 -221q-91 -91 -220 -91h-411q-129 0 -221 77q-91 77 -91 185v192q0 29 21 50q21 20 50 20t50 -20q21 -21 21 -50v-192q0 -49 50 -84q51 -36 120 -36h411q70 0 120 50q50 49 50 120v1006h-376q-29 0 -50 21q-20 21 -20 50
t20 50q21 21 50 21h447z" />
    <glyph glyph-name="K" unicode="K" horiz-adv-x="1178" 
d="M1105 971q0 -125 -88 -227q-87 -102 -210 -122l-103 -16l386 -491q18 -23 14 -53q-3 -29 -26 -47q-20 -15 -44 -15q-35 0 -56 27l-434 553l-332 -52v-457q0 -29 -21 -50t-50 -21t-50 21t-21 50v1318q0 29 21 50t50 21t50 -21t21 -50v-718l573 91q72 12 125 74t53 135v418
q0 29 21 50t50 21t50 -21t21 -50v-418z" />
    <glyph glyph-name="L" unicode="L" 
d="M984 504q21 20 50 20t50 -20q21 -21 21 -50v-192q0 -108 -92 -185q-91 -77 -220 -77h-411q-129 0 -221 91q-91 92 -91 221v1077q0 29 21 50t50 21t50 -21t21 -50v-1077q0 -71 50 -120q49 -50 120 -50h411q69 0 120 36q50 35 50 84v192q0 29 21 50z" />
    <glyph glyph-name="M" unicode="M" horiz-adv-x="1784" 
d="M1402 1460q129 0 221 -91q91 -92 91 -221v-1077q0 -29 -21 -50q-20 -21 -50 -21q-29 0 -50 21t-21 50l1 1077q0 71 -50 120q-50 50 -121 50h-269q-70 0 -120 -50q-50 -49 -50 -120v-794q0 -29 -21 -50t-50 -21t-50 21t-21 50v794q0 71 -50 120q-49 50 -120 50h-269
q-71 0 -120 -50q-50 -49 -50 -120v-1077q0 -29 -21 -50t-50 -21t-50 21t-21 50v1077q0 129 91 221q92 91 221 91h269q147 0 241 -114q94 114 241 114h269z" />
    <glyph glyph-name="N" unicode="N" 
d="M1105 71q0 -29 -21 -50t-50 -21t-50 21t-21 50v350l-742 897h-9v-1247q0 -29 -21 -50t-50 -21t-50 21t-21 50v1318q0 29 21 50t50 21h113q34 0 55 -26l654 -791v746q0 29 21 50q20 21 50 21q29 0 50 -21t21 -50v-1318z" />
    <glyph glyph-name="O" unicode="O" 
d="M963 1148q0 71 -50 120q-50 50 -120 50h-411q-71 0 -120 -50q-50 -49 -50 -120v-836q0 -71 50 -120q49 -50 120 -50h411q70 0 120 50q50 49 50 120v836zM793 1460q129 0 220 -91q92 -92 92 -221v-836q0 -129 -92 -221q-91 -91 -220 -91h-411q-129 0 -221 91
q-91 92 -91 221v836q0 129 91 221q92 91 221 91h411z" />
    <glyph glyph-name="P" unicode="P" 
d="M963 1148q0 71 -50 120q-50 50 -120 50h-581v-647l573 91q72 12 125 74t53 135v177zM793 1460q129 0 220 -91q92 -92 92 -221v-177q0 -125 -88 -227q-87 -102 -210 -122l-595 -94v-457q0 -29 -21 -50t-50 -21t-50 21t-21 50v1318q0 29 21 50t50 21h652z" />
    <glyph glyph-name="Q" unicode="Q" horiz-adv-x="1181" 
d="M964 1149q0 70 -50 120t-120 50h-412q-70 0 -120 -50t-50 -120v-837q0 -70 50 -120t120 -50h412q70 0 120 50t50 120v837zM1106 312q0 -89 -47 -164q-46 -73 -123 -113l120 -38q28 -9 42 -35q13 -26 4 -54q-15 -50 -67 -50q-11 0 -22 4l-436 138h-195q-129 0 -220 92
q-92 91 -92 220v837q0 129 92 220q91 91 220 91h412q129 0 220 -91q92 -91 92 -220v-837z" />
    <glyph glyph-name="R" unicode="R" 
d="M785 762q72 12 125 74t53 135v177q0 71 -50 120q-50 50 -120 50h-581v-647zM1105 971q0 -125 -88 -227q-87 -102 -210 -122l-194 -30l471 -471q21 -21 21 -50t-21 -50t-50 -21t-50 21l-544 543l-228 -36v-457q0 -29 -21 -50t-50 -21t-50 21t-21 50v1318q0 29 21 50t50 21
h652q129 0 220 -91q92 -92 92 -221v-177z" />
    <glyph glyph-name="S" unicode="S" 
d="M1084 956q-21 -20 -50 -20t-50 20q-21 21 -21 50v192q0 49 -50 84q-51 36 -120 36h-411q-71 0 -120 -50q-50 -49 -50 -120v-177q0 -70 44 -120q45 -50 108 -50h447q121 0 208 -92q86 -91 86 -220v-177q0 -129 -92 -221q-91 -91 -220 -91h-411q-129 0 -221 77
q-91 77 -91 185v192q0 29 21 50q21 20 50 20t50 -20q21 -21 21 -50v-192q0 -49 50 -84q51 -36 120 -36h411q70 0 120 50q50 49 50 120v177q0 70 -45 120q-44 50 -107 50h-447q-122 0 -208 92q-86 91 -86 220v177q0 129 91 221q92 91 221 91h411q129 0 220 -77
q92 -77 92 -185v-192q0 -29 -21 -50z" />
    <glyph glyph-name="T" unicode="T" 
d="M1034 1460q29 0 50 -21t21 -50v-141q0 -30 -21 -50q-21 -21 -50 -21t-50 21q-21 20 -21 50v70h-305v-1247q0 -29 -21 -50q-20 -21 -50 -21q-29 0 -50 21q-20 21 -20 50v1247h-305v-70q0 -30 -21 -50q-21 -21 -50 -21t-50 21q-21 20 -21 50v141q0 29 21 50t50 21h893z" />
    <glyph glyph-name="U" unicode="U" 
d="M984 1439q21 21 50 21t50 -21t21 -50v-1077q0 -129 -92 -221q-91 -91 -220 -91h-411q-129 0 -221 91q-91 92 -91 221v1077q0 29 21 50t50 21t50 -21t21 -50v-1077q0 -71 50 -120q49 -50 120 -50h411q70 0 120 50q50 49 50 120v1077q0 29 21 50z" />
    <glyph glyph-name="V" unicode="V" horiz-adv-x="1180" 
d="M1016 1458q29 7 54 -8t33 -43q7 -29 -8 -54l-780 -1318q-20 -35 -61 -35h-113q-29 0 -50 21t-21 50v1318q0 29 21 50t50 21t50 -21t21 -50v-1247h2l759 1283q15 25 43 33z" />
    <glyph glyph-name="W" unicode="W" horiz-adv-x="1784" 
d="M1593 1439q21 21 50 21q30 0 51 -21q20 -21 20 -50v-1077q0 -129 -91 -221q-92 -91 -221 -91h-269q-147 0 -241 114q-94 -114 -241 -114h-269q-129 0 -221 91q-91 92 -91 221v1077q0 29 21 50t50 21t50 -21t21 -50v-1077q0 -70 50 -120t120 -50h269q71 0 120 50
q50 50 50 120v794q0 29 21 50t50 21t50 -21t21 -50v-794q0 -70 50 -120t120 -50h269q71 0 121 50t50 120v1077q0 29 20 50z" />
    <glyph glyph-name="X" unicode="X" 
d="M1105 971q0 -147 -114 -241q114 -94 114 -241v-418q0 -29 -21 -50t-50 -21t-50 21t-21 50v418q0 70 -50 120t-120 50h-411q-71 0 -120 -50q-50 -50 -50 -120v-418q0 -29 -21 -50t-50 -21t-50 21t-21 50v418q0 147 114 241q-114 94 -114 241v418q0 29 21 50t50 21t50 -21
t21 -50v-418q0 -70 50 -120q49 -50 120 -50h411q70 0 120 50t50 120v418q0 29 21 50t50 21t50 -21t21 -50v-418z" />
    <glyph glyph-name="Y" unicode="Y" 
d="M984 1439q21 21 50 21t50 -21t21 -50v-418q0 -129 -92 -220q-91 -92 -220 -92h-135v-588q0 -29 -21 -50q-20 -21 -50 -21q-29 0 -50 21q-20 21 -20 50v588h-135q-129 0 -221 92q-91 91 -91 220v418q0 29 21 50t50 21t50 -21t21 -50v-418q0 -70 50 -120q49 -50 120 -50
h411q70 0 120 50t50 120v418q0 29 21 50z" />
    <glyph glyph-name="Z" unicode="Z" 
d="M984 546q21 21 50 21t50 -21t21 -50v-283q0 -88 -63 -151q-62 -62 -150 -62h-609q-101 0 -140 72q-38 72 19 156l734 1084l4 6h-8h-609q-30 0 -50 -21q-21 -20 -21 -50v-283q0 -29 -21 -50t-50 -21t-50 21t-21 50v283q0 88 62 151q63 62 151 62h609q101 0 140 -72
q38 -72 -19 -156l-734 -1084l-4 -6h8h609q29 0 50 21q21 20 21 50v283q0 29 21 50z" />
    <glyph glyph-name="bracketleft" unicode="[" horiz-adv-x="551" 
d="M415 48q27 0 47 -20q19 -19 19 -47q0 -27 -19 -47q-20 -19 -47 -19h-139q-87 0 -146 84q-60 85 -60 208v1046q0 123 60 208q59 84 146 84h139q27 0 47 -19q19 -20 19 -47q0 -28 -19 -47q-20 -20 -47 -20h-139q-25 0 -48 -44q-25 -50 -25 -115v-1046q0 -65 25 -115
q23 -44 48 -44h139z" />
    <glyph glyph-name="backslash" unicode="\" horiz-adv-x="827" 
d="M119 1541q26 9 51 -2q25 -12 34 -38l544 -1497q9 -26 -2 -51q-12 -25 -38 -34q-11 -4 -22 -4q-47 0 -63 44l-544 1497q-9 26 3 51q11 25 37 34z" />
    <glyph glyph-name="bracketright" unicode="]" horiz-adv-x="551" 
d="M276 48q24 0 47 44q25 50 25 115v1046q0 65 -25 115q-23 44 -47 44h-140q-27 0 -47 20q-19 19 -19 47q0 27 19 47q20 19 47 19h140q86 0 145 -84q60 -85 60 -208v-1046q0 -123 -60 -208q-59 -84 -145 -84h-140q-27 0 -47 19q-19 20 -19 47q0 28 19 47q20 20 47 20h140z
" />
    <glyph glyph-name="asciicircum" unicode="^" horiz-adv-x="859" 
d="M566 758q-20 21 -20 50q0 52 50 68l-172 351l-171 -351q50 -16 50 -68q0 -29 -21 -50q-20 -21 -50 -21h-91q-39 0 -60 33q-11 18 -11 38q0 16 7 31l284 581q19 40 63 40q45 0 64 -40l284 -581q17 -35 -4 -69q-21 -33 -60 -33h-91q-30 0 -51 21z" />
    <glyph glyph-name="underscore" unicode="_" horiz-adv-x="1132" 
d="M991 142q30 0 50 -21q21 -21 21 -50t-21 -50q-20 -21 -50 -21h-850q-29 0 -50 21t-21 50t21 50t50 21h850z" />
    <glyph glyph-name="grave" unicode="`" horiz-adv-x="364" 
d="M281 1279q13 -26 4 -54q-10 -28 -36 -41q-15 -8 -31 -8q-44 0 -64 40l-71 141q-13 27 -4 55q10 27 36 41q26 13 54 3q28 -9 41 -35z" />
    <glyph glyph-name="a" unicode="a" 
d="M963 489v198q0 71 -50 121t-120 50h-411q-71 0 -120 -50q-50 -50 -50 -121v-317zM793 999q129 0 220 -91q92 -92 92 -221v-616q0 -29 -21 -50t-50 -21t-50 21t-21 50v275l-751 -119v-156q0 -29 -21 -50t-50 -21t-50 21t-21 50v616q0 129 91 221q92 91 221 91h411z" />
    <glyph glyph-name="b" unicode="b" 
d="M963 687q0 71 -50 121t-120 50h-411q-71 0 -120 -50q-50 -50 -50 -121v-375q0 -71 50 -120q49 -50 120 -50h411q70 0 120 50q50 49 50 120v375zM793 999q129 0 220 -91q92 -92 92 -221v-375q0 -129 -92 -221q-91 -91 -220 -91h-411q-129 0 -221 91q-91 92 -91 221v375
q0 25 4 49q-4 12 -4 22v631q0 29 21 50t50 21t50 -21t21 -50v-440q77 50 170 50h411z" />
    <glyph glyph-name="c" unicode="c" 
d="M1034 142q29 0 50 -21t21 -50t-21 -50t-50 -21h-652q-129 0 -221 91q-91 92 -91 221v375q0 129 91 221q92 91 221 91h652q29 0 50 -20q21 -21 21 -51q0 -29 -21 -50q-21 -20 -50 -20h-652q-71 0 -120 -50q-50 -50 -50 -121v-375q0 -71 50 -120q49 -50 120 -50h652z" />
    <glyph glyph-name="d" unicode="d" 
d="M212 312q0 -71 50 -120q49 -50 120 -50h411q70 0 120 50q50 49 50 120v375q0 71 -50 121t-120 50h-411q-71 0 -120 -50q-50 -50 -50 -121v-375zM793 999q92 0 170 -50v440q0 29 21 50t50 21t50 -21t21 -50v-631q0 -10 -4 -22q4 -24 4 -49v-375q0 -129 -92 -221
q-91 -91 -220 -91h-411q-129 0 -221 91q-91 92 -91 221v375q0 129 91 221q92 91 221 91h411z" />
    <glyph glyph-name="e" unicode="e" 
d="M1034 142q29 0 50 -21t21 -50t-21 -50t-50 -21h-652q-129 0 -221 91q-91 92 -91 221v375q0 129 91 221q92 91 221 91h652q29 0 50 -20q21 -21 21 -51q0 -29 -21 -50q-21 -20 -50 -20h-652q-71 0 -120 -50q-50 -50 -50 -121v-240l522 122q29 6 54 -9q25 -16 31 -44
q7 -29 -8 -54q-16 -25 -45 -31l-554 -129q4 -67 53 -114q49 -46 117 -46h652z" />
    <glyph glyph-name="f" unicode="f" horiz-adv-x="1033" 
d="M892 999q29 0 50 -21t21 -50t-21 -50t-50 -21h-510q-71 0 -120 -50q-50 -49 -50 -120v-527l522 121q29 7 54 -9q25 -15 31 -44q7 -28 -8 -53q-16 -25 -45 -32l-554 -129v-404q0 -29 -21 -50t-50 -21t-50 21t-21 50v1077q0 129 91 221q92 91 221 91h510z" />
    <glyph glyph-name="g" unicode="g" 
d="M793 141q70 0 120 50t50 121v375q0 71 -50 120q-50 50 -120 50h-411q-71 0 -120 -50q-50 -49 -50 -120v-375q0 -71 50 -121q49 -50 120 -50h411zM1105 312q0 -25 -4 -49q4 -12 4 -22v-390q0 -129 -90 -221q-89 -91 -215 -91h-234q-29 0 -50 21t-21 50t21 50t50 21h234
q67 0 115 50q48 49 48 120v199q-78 -50 -170 -50h-411q-129 0 -221 91q-91 92 -91 221v375q0 129 91 221q92 91 221 91h411q129 0 220 -91q92 -92 92 -221v-375z" />
    <glyph glyph-name="h" unicode="h" 
d="M793 999q129 0 220 -91q92 -92 92 -221v-616q0 -29 -21 -50t-50 -21t-50 21t-21 50v616q0 71 -50 121t-120 50h-411q-71 0 -120 -50q-50 -50 -50 -121v-616q0 -29 -21 -50t-50 -21t-50 21t-21 50v1318q0 29 21 50t50 21t50 -21t21 -50v-440q77 50 170 50h411z" />
    <glyph glyph-name="i" unicode="i" horiz-adv-x="849" 
d="M708 142q29 0 50 -21t21 -50t-21 -50t-50 -21h-567q-29 0 -50 21t-21 50t21 50t50 21h212v716h-212q-29 0 -50 20q-21 21 -21 50q0 30 21 51q21 20 50 20h567q29 0 50 -20q21 -21 21 -51q0 -29 -21 -50q-21 -20 -50 -20h-213v-716h213z" />
    <glyph glyph-name="j" unicode="j" horiz-adv-x="608" 
d="M417 978q21 21 50 21t50 -21q21 -20 21 -50v-1119q0 -70 -50 -120t-120 -50h-227q-29 0 -50 21t-21 50t21 50t50 21h227q28 0 28 28v1119q0 30 21 50zM417 1375q21 21 50 21t50 -21t21 -50v-120q0 -30 -21 -50q-21 -21 -50 -21t-50 21q-21 20 -21 50v120q0 29 21 50z" />
    <glyph glyph-name="k" unicode="k" horiz-adv-x="1036" 
d="M651 702q129 0 221 -92q91 -91 91 -220v-319q0 -29 -21 -50t-50 -21t-50 21t-21 50v319q0 70 -50 120q-49 50 -120 50h-329l-110 -90v-399q0 -29 -21 -50t-50 -21t-50 21t-21 50v1318q0 29 21 50t50 21t50 -21t21 -50v-736l26 21q9 13 23 20l586 481q23 18 52 15t48 -25
q19 -23 16 -52t-26 -48l-443 -363h157z" />
    <glyph glyph-name="l" unicode="l" horiz-adv-x="750" 
d="M609 142q29 0 50 -21t21 -50t-21 -50t-50 -21h-234q-126 0 -216 91q-89 92 -89 221v1077q0 29 21 50t50 21t50 -21t21 -50v-1077q0 -71 48 -120q47 -50 115 -50h234z" />
    <glyph glyph-name="m" unicode="m" horiz-adv-x="1784" 
d="M1402 999q129 0 221 -91q91 -92 91 -221v-616q0 -29 -20 -50q-21 -21 -51 -21q-29 0 -50 21q-20 21 -20 50v616q0 71 -50 121t-121 50h-269q-70 0 -120 -50t-50 -121v-474q0 -30 -21 -50q-21 -21 -50 -21t-50 21q-21 20 -21 50v474q0 71 -50 121q-49 50 -120 50h-269
q-71 0 -120 -50q-50 -50 -50 -121v-616q0 -29 -21 -50t-50 -21t-50 21t-21 50v616q0 129 91 221q92 91 221 91h269q147 0 241 -114q94 114 241 114h269z" />
    <glyph glyph-name="n" unicode="n" horiz-adv-x="1033" 
d="M651 999q129 0 221 -91q91 -92 91 -221v-616q0 -29 -21 -50t-50 -21t-50 21t-21 50v616q0 71 -50 121q-49 50 -120 50h-269q-71 0 -120 -50q-50 -50 -50 -121v-616q0 -29 -21 -50t-50 -21t-50 21t-21 50v616q0 129 91 221q92 91 221 91h269z" />
    <glyph glyph-name="o" unicode="o" 
d="M963 687q0 71 -50 121t-120 50h-411q-71 0 -120 -50q-50 -50 -50 -121v-375q0 -71 50 -120q49 -50 120 -50h411q70 0 120 50q50 49 50 120v375zM793 999q129 0 220 -91q92 -92 92 -221v-375q0 -129 -92 -221q-91 -91 -220 -91h-411q-129 0 -221 91q-91 92 -91 221v375
q0 129 91 221q92 91 221 91h411z" />
    <glyph glyph-name="p" unicode="p" 
d="M963 687q0 71 -50 120q-50 50 -120 50h-411q-71 0 -120 -50q-50 -49 -50 -120v-375q0 -71 50 -121q49 -50 120 -50h411q70 0 120 50t50 121v375zM793 999q129 0 220 -91q92 -92 92 -221v-375q0 -129 -92 -221q-91 -91 -220 -91h-411q-93 0 -170 50v-440q0 -29 -21 -50
t-50 -21t-50 21t-21 50v1077q0 129 91 221q92 91 221 91h411z" />
    <glyph glyph-name="q" unicode="q" 
d="M212 312q0 -71 50 -121q49 -50 120 -50h411q70 0 120 50t50 121v375q0 71 -50 120q-50 50 -120 50h-411q-71 0 -120 -50q-50 -49 -50 -120v-375zM793 999q129 0 220 -91q92 -92 92 -221v-1077q0 -29 -21 -50t-50 -21t-50 21t-21 50v440q-78 -50 -170 -50h-411
q-129 0 -221 91q-91 92 -91 221v375q0 129 91 221q92 91 221 91h411z" />
    <glyph glyph-name="r" unicode="r" horiz-adv-x="891" 
d="M750 999q30 0 51 -20q20 -21 20 -51q0 -29 -20 -50q-21 -20 -51 -20h-368q-71 0 -120 -50q-50 -50 -50 -121v-616q0 -29 -21 -50t-50 -21t-50 21t-21 50v616q0 129 91 221q92 91 221 91h368z" />
    <glyph glyph-name="s" unicode="s" 
d="M892 571q88 0 150 -63q63 -62 63 -150v-145q0 -88 -63 -151q-62 -62 -150 -62h-751q-29 0 -50 21t-21 50t21 50t50 21h751q29 0 50 21q21 20 21 50v145q0 29 -21 50t-50 21h-609q-88 0 -151 62q-62 62 -62 150v146q0 88 62 150q63 62 151 62h751q29 0 50 -20
q21 -21 21 -51q0 -29 -21 -50q-21 -20 -50 -20h-751q-30 0 -50 -21q-21 -21 -21 -50v-146q0 -29 21 -50q20 -20 50 -20h609z" />
    <glyph glyph-name="t" unicode="t" horiz-adv-x="990" 
d="M850 1013q29 0 50 -20q20 -21 20 -50q0 -30 -20 -50q-21 -21 -50 -21h-284v-801q0 -29 -21 -50q-20 -21 -50 -21q-29 0 -50 21t-21 50v801h-283q-29 0 -50 21q-21 20 -21 50q0 29 21 50q21 20 50 20h283v234q0 30 21 50q21 21 50 21q30 0 50 -21q21 -20 21 -50v-234h284z
" />
    <glyph glyph-name="u" unicode="u" 
d="M984 979q21 20 50 20t50 -20q21 -21 21 -51v-616q0 -129 -92 -221q-91 -91 -220 -91h-411q-129 0 -221 91q-91 92 -91 221v616q0 30 21 51q21 20 50 20t50 -20q21 -21 21 -51v-616q0 -71 50 -120q49 -50 120 -50h411q70 0 120 50q50 49 50 120v616q0 30 21 51z" />
    <glyph glyph-name="v" unicode="v" horiz-adv-x="1037" 
d="M882 999q29 4 52 -14q24 -17 28 -46q5 -29 -13 -53l-638 -857q-21 -29 -57 -29h-113q-29 0 -50 21t-21 50v857q0 30 21 51q21 20 50 20t50 -20q21 -21 21 -51v-786h7l616 829q18 23 47 28z" />
    <glyph glyph-name="w" unicode="w" horiz-adv-x="1784" 
d="M1593 979q21 20 50 20q30 0 51 -20q20 -21 20 -51v-616q0 -129 -91 -221q-92 -91 -221 -91h-269q-147 0 -241 114q-94 -114 -241 -114h-269q-129 0 -221 91q-91 92 -91 221v616q0 30 21 51q21 20 50 20t50 -20q21 -21 21 -51v-616q0 -71 50 -120q49 -50 120 -50h269
q71 0 120 50q50 49 50 120v475q0 29 21 50t50 21t50 -21t21 -50v-475q0 -71 50 -120q50 -50 120 -50h269q71 0 121 50q50 49 50 120v616q0 30 20 51z" />
    <glyph glyph-name="x" unicode="x" 
d="M1105 714q0 -129 -107 -214q107 -86 107 -215v-214q0 -29 -21 -50t-50 -21t-50 21t-21 50v214q0 60 -50 102t-120 42h-411q-71 0 -120 -42q-50 -42 -50 -102v-214q0 -29 -21 -50t-50 -21t-50 21t-21 50v214q0 129 106 215q-106 85 -106 214v214q0 30 21 51q21 20 50 20
t50 -20q21 -21 21 -51v-214q0 -59 50 -101q49 -42 120 -42h411q70 0 120 42t50 101v214q0 30 21 51q21 20 50 20t50 -20q21 -21 21 -51v-214z" />
    <glyph glyph-name="y" unicode="y" 
d="M984 978q21 21 50 21t50 -21t21 -50v-616q0 -129 -92 -220q-91 -92 -220 -92h-135v-531q0 -29 -21 -50q-20 -21 -50 -21q-29 0 -50 21q-20 21 -20 50v531h-135q-129 0 -221 92q-91 91 -91 220v616q0 29 21 50t50 21t50 -21t21 -50v-616q0 -70 50 -120q49 -50 120 -50h411
q70 0 120 50t50 120v616q0 29 21 50z" />
    <glyph glyph-name="z" unicode="z" 
d="M283 429q-30 0 -50 -21q-21 -21 -21 -50v-145q0 -30 21 -50q20 -21 50 -21h751q29 0 50 -21t21 -50t-21 -50t-50 -21h-751q-88 0 -151 62q-62 63 -62 151v145q0 88 62 150q63 63 151 63h609q29 0 50 20q21 21 21 50v146q0 29 -21 50t-50 21h-751q-29 0 -50 20
q-21 21 -21 50q0 30 21 51q21 20 50 20h751q88 0 150 -62q63 -62 63 -150v-146q0 -88 -63 -150q-62 -62 -150 -62h-609z" />
    <glyph glyph-name="braceleft" unicode="{" horiz-adv-x="524" 
d="M388 48q27 0 47 -20q19 -19 19 -47q0 -27 -19 -47q-20 -19 -47 -19h-119q-28 0 -47 19q-19 20 -19 47v603q0 53 -88 83q-45 16 -45 63q1 48 45 63q88 31 88 83v603q0 27 19 47q19 19 47 19h119q27 0 47 -19q19 -20 19 -47q0 -28 -19 -47q-20 -20 -47 -20h-53v-536
q0 -83 -70 -146q70 -63 70 -146v-536h53z" />
    <glyph glyph-name="braceright" unicode="}" horiz-adv-x="524" 
d="M189 48v536q0 83 70 146q-70 63 -70 146v536h-53q-27 0 -47 20q-19 19 -19 47q0 27 19 47q20 19 47 19h119q28 0 47 -19q20 -20 20 -47v-603q0 -52 87 -83q45 -15 45 -63q0 -47 -45 -63q-87 -30 -87 -83v-603q0 -27 -20 -47q-19 -19 -47 -19h-119q-27 0 -47 19
q-19 20 -19 47q0 28 19 47q20 20 47 20h53z" />
    <glyph glyph-name="exclamdown" unicode="&#xa1;" horiz-adv-x="282" 
d="M91 900q21 21 50 21t50 -21t21 -50v-879q0 -29 -21 -50t-50 -21t-50 21t-21 50v879q0 29 21 50zM91 1339q21 21 50 21t50 -21t21 -50v-142q0 -29 -21 -50q-21 -20 -50 -20t-50 20q-21 21 -21 50v142q0 29 21 50z" />
    <glyph glyph-name="copyright" unicode="&#xa9;" horiz-adv-x="1600" 
d="M1388 1148q0 71 -50 120q-49 50 -120 50h-836q-71 0 -120 -50q-50 -49 -50 -120v-836q0 -71 50 -120q49 -50 120 -50h836q71 0 120 50q50 49 50 120v836zM1218 1460q129 0 221 -91q91 -92 91 -221v-836q0 -129 -91 -221q-92 -91 -221 -91h-836q-129 0 -221 91
q-91 92 -91 221v836q0 129 91 221q92 91 221 91h836zM628 1019q-71 0 -121 -50q-49 -50 -49 -120v-238q0 -70 49 -120q50 -50 121 -50h585q30 0 50 -21q21 -20 21 -50q0 -29 -21 -50q-20 -21 -50 -21h-585q-129 0 -221 92q-91 91 -91 220v238q0 129 91 220q92 92 221 92h585
q30 0 50 -21q21 -21 21 -50q0 -30 -21 -50q-20 -21 -50 -21h-585z" />
    <glyph glyph-name="acute" unicode="&#xb4;" horiz-adv-x="364" 
d="M154 1421q13 26 41 35q28 10 54 -3q26 -14 36 -41q9 -28 -4 -55l-71 -141q-20 -40 -64 -40q-16 0 -31 8q-26 13 -36 41q-9 28 4 54z" />
    <glyph glyph-name="questiondown" unicode="&#xbf;" horiz-adv-x="750" 
d="M559 1057q20 20 50 20q29 0 50 -20q21 -21 21 -51v-219q0 -30 -21 -50q-21 -21 -50 -21h-234q-68 0 -115 -50q-48 -50 -48 -120v-234q0 -71 48 -120q47 -50 115 -50h234q29 0 50 -21t21 -50t-21 -50t-50 -21h-234q-126 0 -216 91q-89 92 -89 221v234q0 129 89 220
q90 92 216 92h163v148q0 30 21 51zM559 1439q20 21 50 21q29 0 50 -21t21 -50v-113q0 -30 -21 -50q-21 -21 -50 -21q-30 0 -50 21q-21 20 -21 50v113q0 29 21 50z" />
    <glyph glyph-name="Aacute" unicode="&#xc1;" 
d="M963 791v357q0 71 -50 120q-50 50 -120 50h-411q-71 0 -120 -50q-50 -49 -50 -120v-477zM793 1460q129 0 220 -91q92 -92 92 -221v-1077q0 -29 -21 -50t-50 -21t-50 21t-21 50v576l-751 -119v-457q0 -29 -21 -50t-50 -21t-50 21t-21 50v1077q0 129 91 221q92 91 221 91
h411zM586 1554q-20 0 -37 10q-25 15 -32 44q-7 28 8 53l85 142q15 25 43 32q29 7 54 -8t32 -43q8 -29 -8 -54l-85 -142q-20 -34 -60 -34z" />
    <glyph glyph-name="Eacute" unicode="&#xc9;" 
d="M1084 956q-21 -20 -50 -20t-50 20q-21 21 -21 50v192q0 49 -50 84q-51 36 -120 36h-411q-70 0 -120 -50q-50 -49 -50 -120v-472l566 123q29 7 53 -9q25 -16 31 -45t-9 -53q-16 -25 -45 -31l-596 -130v-219q0 -71 50 -120q50 -50 120 -50h411q69 0 120 36q50 35 50 84v192
q0 29 21 50q21 20 50 20t50 -20q21 -21 21 -50v-192q0 -108 -92 -185q-91 -77 -220 -77h-411q-129 0 -221 91q-91 92 -91 221v836q0 129 91 221q92 91 221 91h411q129 0 220 -77q92 -77 92 -185v-192q0 -29 -21 -50zM586 1554q-20 0 -37 10q-25 15 -32 44q-7 28 8 53l85 142
q15 25 43 32q29 7 54 -8t32 -43q8 -29 -8 -54l-85 -142q-20 -34 -60 -34z" />
    <glyph glyph-name="Iacute" unicode="&#xcd;" 
d="M1034 142q29 0 50 -21t21 -50t-21 -50t-50 -21h-893q-29 0 -50 21t-21 50t21 50t50 21h376v1176h-376q-29 0 -50 21t-21 50t21 50t50 21h893q29 0 50 -21t21 -50t-21 -50t-50 -21h-376v-1176h376zM586 1554q-20 0 -37 10q-25 15 -32 44q-7 28 8 53l85 142q15 25 43 32
q29 7 54 -8t32 -43q8 -29 -8 -54l-85 -142q-20 -34 -60 -34z" />
    <glyph glyph-name="Ntilde" unicode="&#xd1;" 
d="M1105 71q0 -29 -21 -50t-50 -21t-50 21t-21 50v350l-742 897h-9v-1247q0 -29 -21 -50t-50 -21t-50 21t-21 50v1318q0 29 21 50t50 21h113q34 0 55 -26l654 -791v746q0 29 21 50q20 21 50 21q29 0 50 -21t21 -50v-1318zM348 1564q-16 -10 -36 -10q-40 0 -61 34
q-15 25 -8 54q7 28 33 44l96 57q22 14 47 9l333 -53l74 44q26 15 54 8t44 -32q15 -25 8 -54q-8 -28 -33 -43l-96 -58q-22 -13 -48 -9l-333 53z" />
    <glyph glyph-name="Oacute" unicode="&#xd3;" 
d="M963 1148q0 71 -50 120q-50 50 -120 50h-411q-71 0 -120 -50q-50 -49 -50 -120v-836q0 -71 50 -120q49 -50 120 -50h411q70 0 120 50q50 49 50 120v836zM793 1460q129 0 220 -91q92 -92 92 -221v-836q0 -129 -92 -221q-91 -91 -220 -91h-411q-129 0 -221 91
q-91 92 -91 221v836q0 129 91 221q92 91 221 91h411zM586 1554q-20 0 -37 10q-25 15 -32 44q-7 28 8 53l85 142q15 25 43 32q29 7 54 -8t32 -43q8 -29 -8 -54l-85 -142q-20 -34 -60 -34z" />
    <glyph glyph-name="Uacute" unicode="&#xda;" 
d="M984 1439q21 21 50 21t50 -21t21 -50v-1077q0 -129 -92 -221q-91 -91 -220 -91h-411q-129 0 -221 91q-91 92 -91 221v1077q0 29 21 50t50 21t50 -21t21 -50v-1077q0 -71 50 -120q49 -50 120 -50h411q70 0 120 50q50 49 50 120v1077q0 29 21 50zM586 1554q-20 0 -37 10
q-25 15 -32 44q-7 28 8 53l85 142q15 25 43 32q29 7 54 -8t32 -43q8 -29 -8 -54l-85 -142q-20 -34 -60 -34z" />
    <glyph glyph-name="aacute" unicode="&#xe1;" 
d="M963 489v198q0 71 -50 121t-120 50h-411q-71 0 -120 -50q-50 -50 -50 -121v-317zM793 999q129 0 220 -91q92 -92 92 -221v-616q0 -29 -21 -50t-50 -21t-50 21t-21 50v275l-751 -119v-156q0 -29 -21 -50t-50 -21t-50 21t-21 50v616q0 129 91 221q92 91 221 91h411z
M586 1094q-20 0 -37 10q-25 15 -32 44q-7 28 8 53l85 142q15 25 43 32q29 7 54 -8t32 -43q8 -29 -8 -54l-85 -142q-20 -34 -60 -34z" />
    <glyph glyph-name="eacute" unicode="&#xe9;" 
d="M1034 142q29 0 50 -21t21 -50t-21 -50t-50 -21h-652q-129 0 -221 91q-91 92 -91 221v375q0 129 91 221q92 91 221 91h652q29 0 50 -20q21 -21 21 -51q0 -29 -21 -50q-21 -20 -50 -20h-652q-71 0 -120 -50q-50 -50 -50 -121v-240l522 122q29 6 54 -9q25 -16 31 -44
q7 -29 -8 -54q-16 -25 -45 -31l-554 -129q4 -67 53 -114q49 -46 117 -46h652zM586 1094q-20 0 -37 10q-25 15 -32 44q-7 28 8 53l85 142q15 25 43 32q29 7 54 -8t32 -43q8 -29 -8 -54l-85 -142q-20 -34 -60 -34z" />
    <glyph glyph-name="iacute" unicode="&#xed;" horiz-adv-x="849" 
d="M708 142q29 0 50 -21t21 -50t-21 -50t-50 -21h-567q-29 0 -50 21t-21 50t21 50t50 21h212v716h-212q-29 0 -50 20q-21 21 -21 50q0 30 21 51q21 20 50 20h567q29 0 50 -20q21 -21 21 -51q0 -29 -21 -50q-21 -20 -50 -20h-213v-716h213zM436 1094q-20 0 -37 10
q-25 15 -32 44q-7 28 8 53l85 142q15 25 43 32q29 7 54 -8t32 -43q8 -29 -8 -54l-85 -142q-20 -34 -60 -34z" />
    <glyph glyph-name="ntilde" unicode="&#xf1;" horiz-adv-x="1033" 
d="M651 999q129 0 221 -91q91 -92 91 -221v-616q0 -29 -21 -50t-50 -21t-50 21t-21 50v616q0 71 -50 121q-49 50 -120 50h-269q-71 0 -120 -50q-50 -50 -50 -121v-616q0 -29 -21 -50t-50 -21t-50 21t-21 50v616q0 129 91 221q92 91 221 91h269zM276 1111q-17 -10 -37 -10
q-40 0 -60 34q-16 25 -8 54q7 28 32 44l96 57q22 14 48 9l333 -53l74 44q25 15 53 8q29 -7 44 -32t8 -54q-7 -28 -32 -43l-97 -58q-22 -13 -47 -9l-333 53z" />
    <glyph glyph-name="oacute" unicode="&#xf3;" 
d="M963 687q0 71 -50 121t-120 50h-411q-71 0 -120 -50q-50 -50 -50 -121v-375q0 -71 50 -120q49 -50 120 -50h411q70 0 120 50q50 49 50 120v375zM793 999q129 0 220 -91q92 -92 92 -221v-375q0 -129 -92 -221q-91 -91 -220 -91h-411q-129 0 -221 91q-91 92 -91 221v375
q0 129 91 221q92 91 221 91h411zM586 1094q-20 0 -37 10q-25 15 -32 44q-7 28 8 53l85 142q15 25 43 32q29 7 54 -8t32 -43q8 -29 -8 -54l-85 -142q-20 -34 -60 -34z" />
    <glyph glyph-name="uacute" unicode="&#xfa;" 
d="M586 1094q-20 0 -37 10q-25 15 -32 44q-7 28 8 53l85 142q15 25 43 32q29 7 54 -8t32 -43q8 -29 -8 -54l-85 -142q-20 -34 -60 -34zM984 979q21 20 50 20t50 -20q21 -21 21 -51v-616q0 -129 -92 -221q-91 -91 -220 -91h-411q-129 0 -221 91q-91 92 -91 221v616
q0 30 21 51q21 20 50 20t50 -20q21 -21 21 -51v-616q0 -71 50 -120q49 -50 120 -50h411q70 0 120 50q50 49 50 120v616q0 30 21 51z" />
    <glyph glyph-name="udieresis" unicode="&#xfc;" 
d="M408 1290q0 -67 -66 -67q-67 0 -67 67q0 66 67 66q66 0 66 -66zM984 979q21 20 50 20t50 -20q21 -21 21 -51v-616q0 -129 -92 -221q-91 -91 -220 -91h-411q-129 0 -221 91q-91 92 -91 221v616q0 30 21 51q21 20 50 20t50 -20q21 -21 21 -51v-616q0 -71 50 -120
q49 -50 120 -50h411q70 0 120 50q50 49 50 120v616q0 30 21 51zM901 1290q0 -67 -66 -67q-67 0 -67 67q0 66 67 66q66 0 66 -66z" />
    <glyph glyph-name="quotedblleft" unicode="&#x201c;" horiz-adv-x="619" 
d="M281 1279q13 -26 4 -54q-10 -28 -36 -41q-15 -8 -32 -8q-43 0 -63 40l-71 141q-13 27 -4 55q10 27 36 41q26 13 54 3q28 -9 41 -35zM536 1279q13 -26 4 -54q-10 -28 -36 -41q-15 -8 -31 -8q-44 0 -64 40l-71 141q-13 27 -4 55q10 27 36 41q26 13 54 3q28 -9 41 -35z" />
    <glyph glyph-name="quotedblright" unicode="&#x201d;" horiz-adv-x="619" 
d="M409 1421q13 26 41 35q28 10 54 -3q26 -14 36 -41q9 -28 -4 -55l-71 -141q-20 -40 -63 -40q-17 0 -32 8q-26 13 -36 41q-9 28 4 54zM154 1421q13 26 41 35q28 10 54 -3q26 -14 36 -41q9 -28 -4 -55l-71 -141q-20 -40 -64 -40q-16 0 -31 8q-26 13 -36 41q-9 28 4 54z" />
    <glyph glyph-name="glyph111" horiz-adv-x="698" 
 />
  </font>
</defs>
</svg>
